<mxfile host="app.diagrams.net" modified="2022-07-11T02:00:32.808Z" agent="5.0 (Windows NT 10.0; Win64; x64) AppleWebKit/537.36 (KHTML, like Gecko) Chrome/103.0.5060.66 Safari/537.36 Edg/103.0.1264.44" etag="UpfFqkGhjoTBP0HJzGj9" version="18.0.8" type="github">
  <diagram id="dO5Y6QSdW0gGd7icBZJD" name="Page-1">
    <mxGraphModel dx="1422" dy="762" grid="1" gridSize="10" guides="1" tooltips="1" connect="1" arrows="1" fold="1" page="1" pageScale="1" pageWidth="827" pageHeight="1169" math="0" shadow="0">
      <root>
        <mxCell id="0" />
        <mxCell id="1" parent="0" />
        <mxCell id="Wu54o1L6_15D7WoY8SyF-21" value="" style="rounded=0;whiteSpace=wrap;html=1;" vertex="1" parent="1">
          <mxGeometry x="130" y="200" width="420" height="350" as="geometry" />
        </mxCell>
        <mxCell id="Wu54o1L6_15D7WoY8SyF-6" style="edgeStyle=orthogonalEdgeStyle;rounded=0;orthogonalLoop=1;jettySize=auto;html=1;" edge="1" parent="1" source="Wu54o1L6_15D7WoY8SyF-1">
          <mxGeometry relative="1" as="geometry">
            <mxPoint x="190" y="290" as="targetPoint" />
          </mxGeometry>
        </mxCell>
        <mxCell id="Wu54o1L6_15D7WoY8SyF-7" style="edgeStyle=orthogonalEdgeStyle;rounded=0;orthogonalLoop=1;jettySize=auto;html=1;entryX=0.571;entryY=-0.15;entryDx=0;entryDy=0;entryPerimeter=0;" edge="1" parent="1" source="Wu54o1L6_15D7WoY8SyF-1" target="Wu54o1L6_15D7WoY8SyF-3">
          <mxGeometry relative="1" as="geometry" />
        </mxCell>
        <mxCell id="Wu54o1L6_15D7WoY8SyF-8" style="edgeStyle=orthogonalEdgeStyle;rounded=0;orthogonalLoop=1;jettySize=auto;html=1;entryX=0.471;entryY=0;entryDx=0;entryDy=0;entryPerimeter=0;" edge="1" parent="1" source="Wu54o1L6_15D7WoY8SyF-1" target="Wu54o1L6_15D7WoY8SyF-4">
          <mxGeometry relative="1" as="geometry" />
        </mxCell>
        <mxCell id="Wu54o1L6_15D7WoY8SyF-1" value="sys_bill_num" style="text;html=1;align=center;verticalAlign=middle;resizable=0;points=[];autosize=1;strokeColor=none;fillColor=none;" vertex="1" parent="1">
          <mxGeometry x="270" y="230" width="80" height="20" as="geometry" />
        </mxCell>
        <mxCell id="Wu54o1L6_15D7WoY8SyF-2" value="bill_num_1" style="text;html=1;align=center;verticalAlign=middle;resizable=0;points=[];autosize=1;strokeColor=none;fillColor=none;" vertex="1" parent="1">
          <mxGeometry x="160" y="300" width="70" height="20" as="geometry" />
        </mxCell>
        <mxCell id="Wu54o1L6_15D7WoY8SyF-3" value="bill_num_2" style="text;html=1;align=center;verticalAlign=middle;resizable=0;points=[];autosize=1;strokeColor=none;fillColor=none;" vertex="1" parent="1">
          <mxGeometry x="260" y="300" width="70" height="20" as="geometry" />
        </mxCell>
        <mxCell id="Wu54o1L6_15D7WoY8SyF-4" value="bill_num_n" style="text;html=1;align=center;verticalAlign=middle;resizable=0;points=[];autosize=1;strokeColor=none;fillColor=none;" vertex="1" parent="1">
          <mxGeometry x="440" y="300" width="70" height="20" as="geometry" />
        </mxCell>
        <mxCell id="Wu54o1L6_15D7WoY8SyF-5" value="..." style="text;html=1;align=center;verticalAlign=middle;resizable=0;points=[];autosize=1;strokeColor=none;fillColor=none;" vertex="1" parent="1">
          <mxGeometry x="370" y="300" width="30" height="20" as="geometry" />
        </mxCell>
        <mxCell id="Wu54o1L6_15D7WoY8SyF-9" value="order_num_1" style="text;html=1;align=center;verticalAlign=middle;resizable=0;points=[];autosize=1;strokeColor=none;fillColor=none;" vertex="1" parent="1">
          <mxGeometry x="150" y="380" width="90" height="20" as="geometry" />
        </mxCell>
        <mxCell id="Wu54o1L6_15D7WoY8SyF-10" value="order_num_2" style="text;html=1;align=center;verticalAlign=middle;resizable=0;points=[];autosize=1;strokeColor=none;fillColor=none;" vertex="1" parent="1">
          <mxGeometry x="250" y="380" width="90" height="20" as="geometry" />
        </mxCell>
        <mxCell id="Wu54o1L6_15D7WoY8SyF-11" value="order_num_n" style="text;html=1;align=center;verticalAlign=middle;resizable=0;points=[];autosize=1;strokeColor=none;fillColor=none;" vertex="1" parent="1">
          <mxGeometry x="430" y="380" width="90" height="20" as="geometry" />
        </mxCell>
        <mxCell id="Wu54o1L6_15D7WoY8SyF-12" value="..." style="text;html=1;align=center;verticalAlign=middle;resizable=0;points=[];autosize=1;strokeColor=none;fillColor=none;" vertex="1" parent="1">
          <mxGeometry x="370" y="380" width="30" height="20" as="geometry" />
        </mxCell>
        <mxCell id="Wu54o1L6_15D7WoY8SyF-13" value="" style="endArrow=classic;startArrow=classic;html=1;rounded=0;exitX=0.467;exitY=-0.15;exitDx=0;exitDy=0;exitPerimeter=0;" edge="1" parent="1" source="Wu54o1L6_15D7WoY8SyF-9">
          <mxGeometry width="50" height="50" relative="1" as="geometry">
            <mxPoint x="300" y="410" as="sourcePoint" />
            <mxPoint x="195" y="330" as="targetPoint" />
          </mxGeometry>
        </mxCell>
        <mxCell id="Wu54o1L6_15D7WoY8SyF-14" value="" style="endArrow=classic;html=1;rounded=0;exitX=0.522;exitY=0;exitDx=0;exitDy=0;exitPerimeter=0;entryX=0.514;entryY=1.1;entryDx=0;entryDy=0;entryPerimeter=0;" edge="1" parent="1" source="Wu54o1L6_15D7WoY8SyF-10" target="Wu54o1L6_15D7WoY8SyF-3">
          <mxGeometry width="50" height="50" relative="1" as="geometry">
            <mxPoint x="390" y="420" as="sourcePoint" />
            <mxPoint x="440" y="370" as="targetPoint" />
          </mxGeometry>
        </mxCell>
        <mxCell id="Wu54o1L6_15D7WoY8SyF-16" value="" style="endArrow=classic;startArrow=classic;html=1;rounded=0;entryX=0.529;entryY=1.3;entryDx=0;entryDy=0;entryPerimeter=0;exitX=0.511;exitY=-0.05;exitDx=0;exitDy=0;exitPerimeter=0;" edge="1" parent="1" source="Wu54o1L6_15D7WoY8SyF-11" target="Wu54o1L6_15D7WoY8SyF-4">
          <mxGeometry width="50" height="50" relative="1" as="geometry">
            <mxPoint x="390" y="420" as="sourcePoint" />
            <mxPoint x="440" y="370" as="targetPoint" />
          </mxGeometry>
        </mxCell>
        <mxCell id="Wu54o1L6_15D7WoY8SyF-18" style="edgeStyle=orthogonalEdgeStyle;rounded=0;orthogonalLoop=1;jettySize=auto;html=1;entryX=0.522;entryY=1;entryDx=0;entryDy=0;entryPerimeter=0;" edge="1" parent="1" source="Wu54o1L6_15D7WoY8SyF-17" target="Wu54o1L6_15D7WoY8SyF-9">
          <mxGeometry relative="1" as="geometry" />
        </mxCell>
        <mxCell id="Wu54o1L6_15D7WoY8SyF-19" style="edgeStyle=orthogonalEdgeStyle;rounded=0;orthogonalLoop=1;jettySize=auto;html=1;" edge="1" parent="1" source="Wu54o1L6_15D7WoY8SyF-17">
          <mxGeometry relative="1" as="geometry">
            <mxPoint x="300" y="410" as="targetPoint" />
          </mxGeometry>
        </mxCell>
        <mxCell id="Wu54o1L6_15D7WoY8SyF-20" style="edgeStyle=orthogonalEdgeStyle;rounded=0;orthogonalLoop=1;jettySize=auto;html=1;" edge="1" parent="1" source="Wu54o1L6_15D7WoY8SyF-17" target="Wu54o1L6_15D7WoY8SyF-11">
          <mxGeometry relative="1" as="geometry" />
        </mxCell>
        <mxCell id="Wu54o1L6_15D7WoY8SyF-17" value="sys_order_num" style="text;html=1;align=center;verticalAlign=middle;resizable=0;points=[];autosize=1;strokeColor=none;fillColor=none;" vertex="1" parent="1">
          <mxGeometry x="260" y="500" width="100" height="20" as="geometry" />
        </mxCell>
        <mxCell id="Wu54o1L6_15D7WoY8SyF-22" value="" style="rounded=0;whiteSpace=wrap;html=1;" vertex="1" parent="1">
          <mxGeometry x="640" y="200" width="420" height="350" as="geometry" />
        </mxCell>
        <mxCell id="Wu54o1L6_15D7WoY8SyF-23" style="edgeStyle=orthogonalEdgeStyle;rounded=0;orthogonalLoop=1;jettySize=auto;html=1;" edge="1" parent="1" source="Wu54o1L6_15D7WoY8SyF-26">
          <mxGeometry relative="1" as="geometry">
            <mxPoint x="700" y="290" as="targetPoint" />
          </mxGeometry>
        </mxCell>
        <mxCell id="Wu54o1L6_15D7WoY8SyF-24" style="edgeStyle=orthogonalEdgeStyle;rounded=0;orthogonalLoop=1;jettySize=auto;html=1;entryX=0.571;entryY=-0.15;entryDx=0;entryDy=0;entryPerimeter=0;" edge="1" parent="1" source="Wu54o1L6_15D7WoY8SyF-26" target="Wu54o1L6_15D7WoY8SyF-28">
          <mxGeometry relative="1" as="geometry" />
        </mxCell>
        <mxCell id="Wu54o1L6_15D7WoY8SyF-25" style="edgeStyle=orthogonalEdgeStyle;rounded=0;orthogonalLoop=1;jettySize=auto;html=1;entryX=0.471;entryY=0;entryDx=0;entryDy=0;entryPerimeter=0;" edge="1" parent="1" source="Wu54o1L6_15D7WoY8SyF-26" target="Wu54o1L6_15D7WoY8SyF-29">
          <mxGeometry relative="1" as="geometry" />
        </mxCell>
        <mxCell id="Wu54o1L6_15D7WoY8SyF-26" value="sys_bill_num" style="text;html=1;align=center;verticalAlign=middle;resizable=0;points=[];autosize=1;strokeColor=none;fillColor=none;" vertex="1" parent="1">
          <mxGeometry x="780" y="230" width="80" height="20" as="geometry" />
        </mxCell>
        <mxCell id="Wu54o1L6_15D7WoY8SyF-27" value="bill_num_1" style="text;html=1;align=center;verticalAlign=middle;resizable=0;points=[];autosize=1;strokeColor=none;fillColor=none;" vertex="1" parent="1">
          <mxGeometry x="670" y="300" width="70" height="20" as="geometry" />
        </mxCell>
        <mxCell id="Wu54o1L6_15D7WoY8SyF-28" value="bill_num_2" style="text;html=1;align=center;verticalAlign=middle;resizable=0;points=[];autosize=1;strokeColor=none;fillColor=none;" vertex="1" parent="1">
          <mxGeometry x="770" y="300" width="70" height="20" as="geometry" />
        </mxCell>
        <mxCell id="Wu54o1L6_15D7WoY8SyF-29" value="bill_num_n" style="text;html=1;align=center;verticalAlign=middle;resizable=0;points=[];autosize=1;strokeColor=none;fillColor=none;" vertex="1" parent="1">
          <mxGeometry x="950" y="300" width="70" height="20" as="geometry" />
        </mxCell>
        <mxCell id="Wu54o1L6_15D7WoY8SyF-30" value="..." style="text;html=1;align=center;verticalAlign=middle;resizable=0;points=[];autosize=1;strokeColor=none;fillColor=none;" vertex="1" parent="1">
          <mxGeometry x="880" y="300" width="30" height="20" as="geometry" />
        </mxCell>
        <mxCell id="Wu54o1L6_15D7WoY8SyF-31" value="order_num_1" style="text;html=1;align=center;verticalAlign=middle;resizable=0;points=[];autosize=1;strokeColor=none;fillColor=none;" vertex="1" parent="1">
          <mxGeometry x="660" y="380" width="90" height="20" as="geometry" />
        </mxCell>
        <mxCell id="Wu54o1L6_15D7WoY8SyF-32" value="order_num_2" style="text;html=1;align=center;verticalAlign=middle;resizable=0;points=[];autosize=1;strokeColor=none;fillColor=none;" vertex="1" parent="1">
          <mxGeometry x="760" y="380" width="90" height="20" as="geometry" />
        </mxCell>
        <mxCell id="Wu54o1L6_15D7WoY8SyF-33" value="order_num_n" style="text;html=1;align=center;verticalAlign=middle;resizable=0;points=[];autosize=1;strokeColor=none;fillColor=none;" vertex="1" parent="1">
          <mxGeometry x="940" y="380" width="90" height="20" as="geometry" />
        </mxCell>
        <mxCell id="Wu54o1L6_15D7WoY8SyF-34" value="..." style="text;html=1;align=center;verticalAlign=middle;resizable=0;points=[];autosize=1;strokeColor=none;fillColor=none;" vertex="1" parent="1">
          <mxGeometry x="880" y="380" width="30" height="20" as="geometry" />
        </mxCell>
        <mxCell id="Wu54o1L6_15D7WoY8SyF-35" value="" style="endArrow=classic;startArrow=classic;html=1;rounded=0;exitX=0.467;exitY=-0.15;exitDx=0;exitDy=0;exitPerimeter=0;" edge="1" parent="1" source="Wu54o1L6_15D7WoY8SyF-31">
          <mxGeometry width="50" height="50" relative="1" as="geometry">
            <mxPoint x="810" y="410" as="sourcePoint" />
            <mxPoint x="705" y="330" as="targetPoint" />
          </mxGeometry>
        </mxCell>
        <mxCell id="Wu54o1L6_15D7WoY8SyF-36" value="" style="endArrow=classic;html=1;rounded=0;exitX=0.522;exitY=0;exitDx=0;exitDy=0;exitPerimeter=0;entryX=0.514;entryY=1.1;entryDx=0;entryDy=0;entryPerimeter=0;" edge="1" parent="1" source="Wu54o1L6_15D7WoY8SyF-32" target="Wu54o1L6_15D7WoY8SyF-28">
          <mxGeometry width="50" height="50" relative="1" as="geometry">
            <mxPoint x="900" y="420" as="sourcePoint" />
            <mxPoint x="950" y="370" as="targetPoint" />
          </mxGeometry>
        </mxCell>
        <mxCell id="Wu54o1L6_15D7WoY8SyF-37" value="" style="endArrow=classic;startArrow=classic;html=1;rounded=0;entryX=0.529;entryY=1.3;entryDx=0;entryDy=0;entryPerimeter=0;exitX=0.511;exitY=-0.05;exitDx=0;exitDy=0;exitPerimeter=0;" edge="1" parent="1" source="Wu54o1L6_15D7WoY8SyF-33" target="Wu54o1L6_15D7WoY8SyF-29">
          <mxGeometry width="50" height="50" relative="1" as="geometry">
            <mxPoint x="900" y="420" as="sourcePoint" />
            <mxPoint x="950" y="370" as="targetPoint" />
          </mxGeometry>
        </mxCell>
        <mxCell id="Wu54o1L6_15D7WoY8SyF-45" style="edgeStyle=orthogonalEdgeStyle;rounded=0;orthogonalLoop=1;jettySize=auto;html=1;entryX=0.511;entryY=1.05;entryDx=0;entryDy=0;entryPerimeter=0;" edge="1" parent="1" source="Wu54o1L6_15D7WoY8SyF-42" target="Wu54o1L6_15D7WoY8SyF-31">
          <mxGeometry relative="1" as="geometry" />
        </mxCell>
        <mxCell id="Wu54o1L6_15D7WoY8SyF-42" value="sys_order_num" style="text;html=1;align=center;verticalAlign=middle;resizable=0;points=[];autosize=1;strokeColor=none;fillColor=none;" vertex="1" parent="1">
          <mxGeometry x="660" y="480" width="100" height="20" as="geometry" />
        </mxCell>
        <mxCell id="Wu54o1L6_15D7WoY8SyF-46" style="edgeStyle=orthogonalEdgeStyle;rounded=0;orthogonalLoop=1;jettySize=auto;html=1;entryX=0.467;entryY=0.95;entryDx=0;entryDy=0;entryPerimeter=0;" edge="1" parent="1" source="Wu54o1L6_15D7WoY8SyF-43" target="Wu54o1L6_15D7WoY8SyF-32">
          <mxGeometry relative="1" as="geometry" />
        </mxCell>
        <mxCell id="Wu54o1L6_15D7WoY8SyF-43" value="sys_order_num" style="text;html=1;align=center;verticalAlign=middle;resizable=0;points=[];autosize=1;strokeColor=none;fillColor=none;" vertex="1" parent="1">
          <mxGeometry x="755" y="480" width="100" height="20" as="geometry" />
        </mxCell>
        <mxCell id="Wu54o1L6_15D7WoY8SyF-47" style="edgeStyle=orthogonalEdgeStyle;rounded=0;orthogonalLoop=1;jettySize=auto;html=1;entryX=0.511;entryY=1.15;entryDx=0;entryDy=0;entryPerimeter=0;" edge="1" parent="1" source="Wu54o1L6_15D7WoY8SyF-44" target="Wu54o1L6_15D7WoY8SyF-33">
          <mxGeometry relative="1" as="geometry" />
        </mxCell>
        <mxCell id="Wu54o1L6_15D7WoY8SyF-44" value="sys_order_num" style="text;html=1;align=center;verticalAlign=middle;resizable=0;points=[];autosize=1;strokeColor=none;fillColor=none;" vertex="1" parent="1">
          <mxGeometry x="940" y="480" width="100" height="20" as="geometry" />
        </mxCell>
      </root>
    </mxGraphModel>
  </diagram>
</mxfile>
